<svg width="16" height="16" viewBox="0 0 16 16" fill="none" xmlns="http://www.w3.org/2000/svg">
<g id="Facebook" clip-path="url(#clip0_1_59)">
<path id="Vector" d="M16 8.04748C16 3.71263 12.5075 0.19873 8.19997 0.19873C3.89047 0.199705 0.398018 3.71263 0.398018 8.04846C0.398018 11.965 3.25087 15.2118 6.97927 15.8007V10.3163H5.00002V8.04846H6.98122V6.31783C6.98122 4.35126 8.14634 3.26511 9.92767 3.26511C10.7818 3.26511 11.6739 3.41818 11.6739 3.41818V5.34868H10.6901C9.72194 5.34868 9.41969 5.95415 9.41969 6.57523V8.04748H11.5822L11.2371 10.3153H9.41872V15.7997C13.1471 15.2108 16 11.9641 16 8.04748Z" fill="#091F92"/>
</g>
<defs>
<clipPath id="clip0_1_59">
<rect width="15.6" height="15.6" fill="white" transform="translate(0.400002 0.199951)"/>
</clipPath>
</defs>
</svg>
