<svg width="17" height="16" viewBox="0 0 17 16" fill="none" xmlns="http://www.w3.org/2000/svg">
<g id="Pinterest" clip-path="url(#clip0_1_57)">
<path id="Vector" d="M8.59966 0.199464C6.78099 0.198311 5.01908 0.832704 3.61859 1.99295C2.21809 3.1532 1.26705 4.76636 0.929909 6.55351C0.592766 8.34066 0.890715 10.1894 1.77224 11.7802C2.65376 13.3709 4.06344 14.6036 5.75753 15.2652C5.68928 14.648 5.62688 13.6993 5.78386 13.0256C5.92621 12.4162 6.69841 9.14802 6.69841 9.14802C6.69841 9.14802 6.46538 8.68099 6.46538 7.99069C6.46538 6.90551 7.09426 6.09626 7.87718 6.09626C8.54213 6.09626 8.86388 6.59546 8.86388 7.19509C8.86388 7.86394 8.43781 8.86429 8.21746 9.79152C8.03416 10.5676 8.60746 11.2014 9.37284 11.2014C10.7593 11.2014 11.825 9.73886 11.825 7.62896C11.825 5.76184 10.4824 4.45631 8.56651 4.45631C6.34741 4.45631 5.04481 6.12064 5.04481 7.84054C5.04481 8.51134 5.30318 9.22991 5.62493 9.62089C5.65264 9.65036 5.67224 9.68651 5.68181 9.72581C5.69138 9.76512 5.69059 9.80623 5.67953 9.84514C5.62006 10.0908 5.48843 10.6212 5.46308 10.7295C5.42896 10.8718 5.34998 10.902 5.20178 10.8338C4.22678 10.3804 3.61838 8.95594 3.61838 7.81129C3.61838 5.35136 5.40653 3.09229 8.77223 3.09229C11.4779 3.09229 13.5809 5.01986 13.5809 7.59679C13.5809 10.2849 11.8854 12.4484 9.53371 12.4484C8.74298 12.4484 8.00003 12.0379 7.74556 11.5524L7.26001 13.4068C7.08353 14.0844 6.60773 14.9337 6.28988 15.4514C7.36236 15.783 8.49377 15.8792 9.60683 15.7334C10.7199 15.5876 11.7884 15.2033 12.7393 14.6068C13.6902 14.0102 14.5011 13.2153 15.1167 12.2766C15.7323 11.3379 16.1379 10.2773 16.306 9.16739C16.4741 8.05748 16.4006 6.92436 16.0906 5.84545C15.7806 4.76653 15.2414 3.76725 14.5098 2.91585C13.7782 2.06445 12.8714 1.38101 11.8514 0.912203C10.8314 0.4434 9.72223 0.200284 8.59966 0.199464Z" fill="#E91F1F"/>
</g>
<defs>
<clipPath id="clip0_1_57">
<rect width="15.6" height="15.6" fill="white" transform="translate(0.799999 0.199951)"/>
</clipPath>
</defs>
</svg>
