<svg width="16" height="16" viewBox="0 0 16 16" fill="none" xmlns="http://www.w3.org/2000/svg">
<g id="Twitter" clip-path="url(#clip0_1_61)">
<path id="Vector" d="M4.90017 14.8247C10.7872 14.8247 14.0076 9.9468 14.0076 5.72407C14.0076 5.58757 14.0077 5.44912 14.0018 5.31262C14.6288 4.85875 15.1699 4.29682 15.5998 3.65317C15.0142 3.9114 14.3935 4.08159 13.758 4.15822C14.4274 3.75812 14.9288 3.12859 15.1689 2.38665C14.54 2.75922 13.8517 3.02076 13.134 3.15982C12.6516 2.64602 12.0132 2.30564 11.3177 2.19141C10.6222 2.07718 9.90848 2.19547 9.28703 2.52796C8.66558 2.86045 8.17111 3.38859 7.88021 4.03056C7.58932 4.67253 7.51822 5.39251 7.67795 6.07897C6.40532 6.01516 5.16032 5.68455 4.02369 5.1086C2.88706 4.53264 1.88419 3.7242 1.08012 2.7357C0.671931 3.4407 0.547359 4.27464 0.731704 5.06816C0.91605 5.86168 1.39549 6.55529 2.07267 7.00815C1.56523 6.99091 1.06893 6.85464 0.623825 6.61035V6.65422C0.6247 7.39277 0.880549 8.10836 1.34813 8.68004C1.8157 9.25172 2.46633 9.64443 3.19002 9.79177C2.91533 9.86745 2.63157 9.90517 2.34665 9.9039C2.14578 9.90451 1.94532 9.8859 1.748 9.84832C1.95254 10.4841 2.35082 11.0399 2.88704 11.438C3.42326 11.8361 4.07058 12.0566 4.73832 12.0684C3.60397 12.9594 2.20274 13.4426 0.760325 13.4402C0.506162 13.4413 0.252177 13.4266 -0.000175476 13.3963C1.4638 14.3297 3.16399 14.8253 4.90017 14.8247Z" fill="#1286C8"/>
</g>
<defs>
<clipPath id="clip0_1_61">
<rect width="15.6" height="15.6" fill="white" transform="translate(0 0.199951)"/>
</clipPath>
</defs>
</svg>
